<mxfile host="Electron" modified="2024-04-20T22:50:35.782Z" agent="Mozilla/5.0 (Windows NT 10.0; Win64; x64) AppleWebKit/537.36 (KHTML, like Gecko) draw.io/24.2.5 Chrome/120.0.6099.109 Electron/28.1.0 Safari/537.36" etag="fvc95hLNgNz1nGglOte2" version="24.2.5" type="device">
  <diagram name="Page-1" id="W-ftj75Ew0wtwy_7PWKf">
    <mxGraphModel dx="1886" dy="918" grid="1" gridSize="10" guides="1" tooltips="1" connect="1" arrows="1" fold="1" page="1" pageScale="1" pageWidth="1100" pageHeight="850" math="0" shadow="0">
      <root>
        <mxCell id="0" />
        <mxCell id="1" parent="0" />
        <mxCell id="b7XEcmBlK1YNF0NkJtcS-23" style="edgeStyle=orthogonalEdgeStyle;rounded=0;orthogonalLoop=1;jettySize=auto;html=1;exitX=0.5;exitY=1;exitDx=0;exitDy=0;entryX=0.5;entryY=0;entryDx=0;entryDy=0;" parent="1" source="b7XEcmBlK1YNF0NkJtcS-2" target="b7XEcmBlK1YNF0NkJtcS-31" edge="1">
          <mxGeometry relative="1" as="geometry">
            <mxPoint x="280" y="162" as="targetPoint" />
          </mxGeometry>
        </mxCell>
        <mxCell id="b7XEcmBlK1YNF0NkJtcS-103" style="edgeStyle=orthogonalEdgeStyle;rounded=0;orthogonalLoop=1;jettySize=auto;html=1;exitX=1;exitY=0.5;exitDx=0;exitDy=0;entryX=0;entryY=0.5;entryDx=0;entryDy=0;" parent="1" source="b7XEcmBlK1YNF0NkJtcS-2" target="b7XEcmBlK1YNF0NkJtcS-24" edge="1">
          <mxGeometry relative="1" as="geometry" />
        </mxCell>
        <mxCell id="b7XEcmBlK1YNF0NkJtcS-2" value="_reset(_, false)" style="rounded=1;whiteSpace=wrap;html=1;fontFamily=Lucida Console;fontSize=13;fontStyle=0;strokeWidth=2;fillColor=#FFFFF7;" parent="1" vertex="1">
          <mxGeometry x="200" y="80" width="160" height="40" as="geometry" />
        </mxCell>
        <mxCell id="b7XEcmBlK1YNF0NkJtcS-6" value="AFrame" style="text;html=1;align=center;verticalAlign=middle;whiteSpace=wrap;rounded=0;fontSize=14;fontStyle=1" parent="1" vertex="1">
          <mxGeometry x="20" y="50" width="120" height="20" as="geometry" />
        </mxCell>
        <mxCell id="b7XEcmBlK1YNF0NkJtcS-9" value="Easies" style="text;html=1;align=center;verticalAlign=middle;whiteSpace=wrap;rounded=0;fontSize=14;fontStyle=1" parent="1" vertex="1">
          <mxGeometry x="220" y="50" width="120" height="20" as="geometry" />
        </mxCell>
        <mxCell id="b7XEcmBlK1YNF0NkJtcS-12" value="Easy" style="text;html=1;align=center;verticalAlign=middle;whiteSpace=wrap;rounded=0;fontSize=14;fontStyle=1" parent="1" vertex="1">
          <mxGeometry x="580" y="50" width="120" height="20" as="geometry" />
        </mxCell>
        <mxCell id="b7XEcmBlK1YNF0NkJtcS-15" value="EBase" style="text;html=1;align=center;verticalAlign=middle;whiteSpace=wrap;rounded=0;fontSize=14;fontStyle=1" parent="1" vertex="1">
          <mxGeometry x="740" y="50" width="120" height="20" as="geometry" />
        </mxCell>
        <mxCell id="b7XEcmBlK1YNF0NkJtcS-21" style="edgeStyle=orthogonalEdgeStyle;rounded=0;orthogonalLoop=1;jettySize=auto;html=1;exitX=1;exitY=0.5;exitDx=0;exitDy=0;entryX=0;entryY=0.5;entryDx=0;entryDy=0;" parent="1" source="b7XEcmBlK1YNF0NkJtcS-17" target="b7XEcmBlK1YNF0NkJtcS-2" edge="1">
          <mxGeometry relative="1" as="geometry" />
        </mxCell>
        <mxCell id="b7XEcmBlK1YNF0NkJtcS-142" style="edgeStyle=orthogonalEdgeStyle;rounded=0;orthogonalLoop=1;jettySize=auto;html=1;exitX=0.5;exitY=1;exitDx=0;exitDy=0;entryX=0.5;entryY=0;entryDx=0;entryDy=0;" parent="1" source="b7XEcmBlK1YNF0NkJtcS-17" target="b7XEcmBlK1YNF0NkJtcS-139" edge="1">
          <mxGeometry relative="1" as="geometry" />
        </mxCell>
        <mxCell id="b7XEcmBlK1YNF0NkJtcS-17" value="#&lt;span style=&quot;background-color: initial;&quot;&gt;onArrival&lt;/span&gt;" style="ellipse;whiteSpace=wrap;html=1;fontFamily=Lucida Console;fontSize=13;strokeWidth=1;fillColor=#f9f9f9;" parent="1" vertex="1">
          <mxGeometry x="20" y="160" width="120" height="40" as="geometry" />
        </mxCell>
        <mxCell id="b7XEcmBlK1YNF0NkJtcS-28" style="edgeStyle=orthogonalEdgeStyle;rounded=0;orthogonalLoop=1;jettySize=auto;html=1;exitX=0.5;exitY=1;exitDx=0;exitDy=0;entryX=0.5;entryY=0;entryDx=0;entryDy=0;" parent="1" source="b7XEcmBlK1YNF0NkJtcS-24" target="b7XEcmBlK1YNF0NkJtcS-26" edge="1">
          <mxGeometry relative="1" as="geometry" />
        </mxCell>
        <mxCell id="b7XEcmBlK1YNF0NkJtcS-24" value="_reset(_, false)" style="rounded=1;whiteSpace=wrap;html=1;fontFamily=Lucida Console;fontSize=13;fontStyle=0;strokeWidth=2;fillColor=#FFFFF7;" parent="1" vertex="1">
          <mxGeometry x="560" y="80" width="160" height="40" as="geometry" />
        </mxCell>
        <mxCell id="dWusE8W-rmLL4rM88wnJ-5" style="edgeStyle=orthogonalEdgeStyle;rounded=0;orthogonalLoop=1;jettySize=auto;html=1;exitX=0.5;exitY=1;exitDx=0;exitDy=0;entryX=0.5;entryY=0;entryDx=0;entryDy=0;" edge="1" parent="1" source="b7XEcmBlK1YNF0NkJtcS-26" target="b7XEcmBlK1YNF0NkJtcS-126">
          <mxGeometry relative="1" as="geometry" />
        </mxCell>
        <mxCell id="dWusE8W-rmLL4rM88wnJ-6" style="edgeStyle=orthogonalEdgeStyle;rounded=0;orthogonalLoop=1;jettySize=auto;html=1;exitX=0.5;exitY=1;exitDx=0;exitDy=0;entryX=0.5;entryY=0;entryDx=0;entryDy=0;" edge="1" parent="1" source="b7XEcmBlK1YNF0NkJtcS-26" target="b7XEcmBlK1YNF0NkJtcS-131">
          <mxGeometry relative="1" as="geometry">
            <Array as="points">
              <mxPoint x="640" y="215" />
              <mxPoint x="480" y="215" />
            </Array>
          </mxGeometry>
        </mxCell>
        <mxCell id="dWusE8W-rmLL4rM88wnJ-9" style="edgeStyle=orthogonalEdgeStyle;rounded=0;orthogonalLoop=1;jettySize=auto;html=1;exitX=0;exitY=0.5;exitDx=0;exitDy=0;entryX=1;entryY=0.5;entryDx=0;entryDy=0;" edge="1" parent="1" source="b7XEcmBlK1YNF0NkJtcS-26" target="b7XEcmBlK1YNF0NkJtcS-35">
          <mxGeometry relative="1" as="geometry" />
        </mxCell>
        <mxCell id="b7XEcmBlK1YNF0NkJtcS-26" value="#&lt;span style=&quot;background-color: initial;&quot;&gt;onArrival&lt;/span&gt;" style="ellipse;whiteSpace=wrap;html=1;fontFamily=Lucida Console;fontSize=13;strokeWidth=1;fillColor=#f9f9f9;" parent="1" vertex="1">
          <mxGeometry x="580" y="160" width="120" height="40" as="geometry" />
        </mxCell>
        <mxCell id="b7XEcmBlK1YNF0NkJtcS-34" style="edgeStyle=orthogonalEdgeStyle;rounded=0;orthogonalLoop=1;jettySize=auto;html=1;exitX=0.5;exitY=1;exitDx=0;exitDy=0;entryX=0.5;entryY=0;entryDx=0;entryDy=0;" parent="1" source="b7XEcmBlK1YNF0NkJtcS-31" target="b7XEcmBlK1YNF0NkJtcS-32" edge="1">
          <mxGeometry relative="1" as="geometry" />
        </mxCell>
        <mxCell id="b7XEcmBlK1YNF0NkJtcS-31" value="#oneShot" style="ellipse;whiteSpace=wrap;html=1;fontFamily=Lucida Console;fontSize=13;strokeWidth=1;fillColor=#f9f9f9;" parent="1" vertex="1">
          <mxGeometry x="220" y="240" width="120" height="40" as="geometry" />
        </mxCell>
        <mxCell id="b7XEcmBlK1YNF0NkJtcS-32" value="clearTargets()" style="rounded=1;whiteSpace=wrap;html=1;fontFamily=Lucida Console;fontSize=13;fontStyle=0;strokeWidth=2;fillColor=#eff7ff;" parent="1" vertex="1">
          <mxGeometry x="210" y="320" width="140" height="40" as="geometry" />
        </mxCell>
        <mxCell id="dWusE8W-rmLL4rM88wnJ-2" style="edgeStyle=orthogonalEdgeStyle;rounded=0;orthogonalLoop=1;jettySize=auto;html=1;exitX=0;exitY=0.5;exitDx=0;exitDy=0;entryX=0;entryY=0.5;entryDx=0;entryDy=0;" edge="1" parent="1" source="b7XEcmBlK1YNF0NkJtcS-35" target="b7XEcmBlK1YNF0NkJtcS-36">
          <mxGeometry relative="1" as="geometry">
            <Array as="points">
              <mxPoint x="380" y="180" />
              <mxPoint x="380" y="342" />
            </Array>
          </mxGeometry>
        </mxCell>
        <mxCell id="b7XEcmBlK1YNF0NkJtcS-35" value="#&lt;span style=&quot;background-color: initial;&quot;&gt;oneShot&lt;/span&gt;&lt;sup&gt;â€ &lt;/sup&gt;" style="ellipse;whiteSpace=wrap;html=1;fontFamily=Lucida Console;fontSize=13;strokeWidth=1;fillColor=#f9f9f9;" parent="1" vertex="1">
          <mxGeometry x="420" y="160" width="120" height="40" as="geometry" />
        </mxCell>
        <mxCell id="b7XEcmBlK1YNF0NkJtcS-36" value="clearTargets()" style="rounded=1;whiteSpace=wrap;html=1;fontFamily=Lucida Console;fontSize=13;fontStyle=0;strokeWidth=2;fillColor=#eff7ff;" parent="1" vertex="1">
          <mxGeometry x="410" y="322" width="140" height="40" as="geometry" />
        </mxCell>
        <mxCell id="b7XEcmBlK1YNF0NkJtcS-40" value="clearTargets()" style="rounded=1;whiteSpace=wrap;html=1;fontFamily=Lucida Console;fontSize=13;fontStyle=0;strokeWidth=2;fillColor=#eff7ff;" parent="1" vertex="1">
          <mxGeometry x="10" y="320" width="140" height="40" as="geometry" />
        </mxCell>
        <mxCell id="b7XEcmBlK1YNF0NkJtcS-43" style="edgeStyle=orthogonalEdgeStyle;rounded=0;orthogonalLoop=1;jettySize=auto;html=1;exitX=0.5;exitY=1;exitDx=0;exitDy=0;" parent="1" source="b7XEcmBlK1YNF0NkJtcS-44" target="b7XEcmBlK1YNF0NkJtcS-50" edge="1">
          <mxGeometry relative="1" as="geometry" />
        </mxCell>
        <mxCell id="b7XEcmBlK1YNF0NkJtcS-105" style="edgeStyle=orthogonalEdgeStyle;rounded=0;orthogonalLoop=1;jettySize=auto;html=1;exitX=1;exitY=0.5;exitDx=0;exitDy=0;entryX=0;entryY=0.5;entryDx=0;entryDy=0;" parent="1" source="b7XEcmBlK1YNF0NkJtcS-44" target="b7XEcmBlK1YNF0NkJtcS-52" edge="1">
          <mxGeometry relative="1" as="geometry" />
        </mxCell>
        <mxCell id="b7XEcmBlK1YNF0NkJtcS-44" value="_reset(sts, true)" style="rounded=1;whiteSpace=wrap;html=1;fontFamily=Lucida Console;fontSize=13;fontStyle=0;strokeWidth=2;fillColor=#FFFFF7;" parent="1" vertex="1">
          <mxGeometry x="200" y="520" width="160" height="40" as="geometry" />
        </mxCell>
        <mxCell id="b7XEcmBlK1YNF0NkJtcS-45" style="edgeStyle=orthogonalEdgeStyle;rounded=0;orthogonalLoop=1;jettySize=auto;html=1;exitX=1;exitY=0.5;exitDx=0;exitDy=0;entryX=0;entryY=0.5;entryDx=0;entryDy=0;" parent="1" source="b7XEcmBlK1YNF0NkJtcS-47" target="b7XEcmBlK1YNF0NkJtcS-44" edge="1">
          <mxGeometry relative="1" as="geometry" />
        </mxCell>
        <mxCell id="b7XEcmBlK1YNF0NkJtcS-150" style="edgeStyle=orthogonalEdgeStyle;rounded=0;orthogonalLoop=1;jettySize=auto;html=1;exitX=0.5;exitY=1;exitDx=0;exitDy=0;entryX=0.5;entryY=0;entryDx=0;entryDy=0;" parent="1" source="b7XEcmBlK1YNF0NkJtcS-47" target="b7XEcmBlK1YNF0NkJtcS-149" edge="1">
          <mxGeometry relative="1" as="geometry" />
        </mxCell>
        <mxCell id="b7XEcmBlK1YNF0NkJtcS-47" value="forceIt" style="ellipse;whiteSpace=wrap;html=1;fontFamily=Lucida Console;fontSize=13;strokeWidth=1;fillColor=#f9f9f9;" parent="1" vertex="1">
          <mxGeometry x="20" y="600" width="120" height="40" as="geometry" />
        </mxCell>
        <mxCell id="b7XEcmBlK1YNF0NkJtcS-153" style="edgeStyle=orthogonalEdgeStyle;rounded=0;orthogonalLoop=1;jettySize=auto;html=1;exitX=0.5;exitY=1;exitDx=0;exitDy=0;" parent="1" source="b7XEcmBlK1YNF0NkJtcS-50" target="b7XEcmBlK1YNF0NkJtcS-152" edge="1">
          <mxGeometry relative="1" as="geometry" />
        </mxCell>
        <mxCell id="b7XEcmBlK1YNF0NkJtcS-50" value="forceIt" style="ellipse;whiteSpace=wrap;html=1;fontFamily=Lucida Console;fontSize=13;strokeWidth=1;fillColor=#f9f9f9;" parent="1" vertex="1">
          <mxGeometry x="220" y="600" width="120" height="40" as="geometry" />
        </mxCell>
        <mxCell id="b7XEcmBlK1YNF0NkJtcS-51" style="edgeStyle=orthogonalEdgeStyle;rounded=0;orthogonalLoop=1;jettySize=auto;html=1;exitX=0.5;exitY=1;exitDx=0;exitDy=0;entryX=0.5;entryY=0;entryDx=0;entryDy=0;" parent="1" source="b7XEcmBlK1YNF0NkJtcS-52" target="b7XEcmBlK1YNF0NkJtcS-55" edge="1">
          <mxGeometry relative="1" as="geometry" />
        </mxCell>
        <mxCell id="b7XEcmBlK1YNF0NkJtcS-52" value="_reset(sts, true)" style="rounded=1;whiteSpace=wrap;html=1;fontFamily=Lucida Console;fontSize=13;fontStyle=0;strokeWidth=2;fillColor=#FFFFF7;" parent="1" vertex="1">
          <mxGeometry x="410" y="520" width="160" height="40" as="geometry" />
        </mxCell>
        <mxCell id="b7XEcmBlK1YNF0NkJtcS-145" style="edgeStyle=orthogonalEdgeStyle;rounded=0;orthogonalLoop=1;jettySize=auto;html=1;exitX=0.5;exitY=1;exitDx=0;exitDy=0;entryX=0;entryY=0.5;entryDx=0;entryDy=0;" parent="1" source="b7XEcmBlK1YNF0NkJtcS-55" target="b7XEcmBlK1YNF0NkJtcS-143" edge="1">
          <mxGeometry relative="1" as="geometry" />
        </mxCell>
        <mxCell id="b7XEcmBlK1YNF0NkJtcS-147" style="edgeStyle=orthogonalEdgeStyle;rounded=0;orthogonalLoop=1;jettySize=auto;html=1;exitX=1;exitY=0.5;exitDx=0;exitDy=0;entryX=0;entryY=0.5;entryDx=0;entryDy=0;" parent="1" source="b7XEcmBlK1YNF0NkJtcS-55" target="b7XEcmBlK1YNF0NkJtcS-146" edge="1">
          <mxGeometry relative="1" as="geometry" />
        </mxCell>
        <mxCell id="b7XEcmBlK1YNF0NkJtcS-55" value="forceIt" style="ellipse;whiteSpace=wrap;html=1;fontFamily=Lucida Console;fontSize=13;strokeWidth=1;fillColor=#f9f9f9;" parent="1" vertex="1">
          <mxGeometry x="430" y="600" width="120" height="40" as="geometry" />
        </mxCell>
        <mxCell id="b7XEcmBlK1YNF0NkJtcS-59" value="clearTargets()" style="rounded=1;whiteSpace=wrap;html=1;fontFamily=Lucida Console;fontSize=13;fontStyle=0;strokeWidth=2;fillColor=#eff7ff;" parent="1" vertex="1">
          <mxGeometry x="210" y="760" width="140" height="40" as="geometry" />
        </mxCell>
        <mxCell id="b7XEcmBlK1YNF0NkJtcS-62" value="clearTargets()" style="rounded=1;whiteSpace=wrap;html=1;fontFamily=Lucida Console;fontSize=13;fontStyle=0;strokeWidth=2;fillColor=#eff7ff;" parent="1" vertex="1">
          <mxGeometry x="620" y="760" width="140" height="40" as="geometry" />
        </mxCell>
        <mxCell id="b7XEcmBlK1YNF0NkJtcS-65" value="clearTargets()" style="rounded=1;whiteSpace=wrap;html=1;fontFamily=Lucida Console;fontSize=13;fontStyle=0;strokeWidth=2;fillColor=#eff7ff;" parent="1" vertex="1">
          <mxGeometry x="10" y="760" width="140" height="40" as="geometry" />
        </mxCell>
        <mxCell id="b7XEcmBlK1YNF0NkJtcS-69" value="_apply()" style="rounded=1;whiteSpace=wrap;html=1;fontFamily=Lucida Console;fontSize=13;fontStyle=0;strokeWidth=2;fillColor=#eff7ff;" parent="1" vertex="1">
          <mxGeometry x="750" y="320" width="100" height="40" as="geometry" />
        </mxCell>
        <mxCell id="b7XEcmBlK1YNF0NkJtcS-77" value="_apply()" style="rounded=1;whiteSpace=wrap;html=1;fontFamily=Lucida Console;fontSize=13;fontStyle=0;strokeWidth=2;fillColor=#eff7ff;" parent="1" vertex="1">
          <mxGeometry x="790" y="600" width="100" height="40" as="geometry" />
        </mxCell>
        <mxCell id="b7XEcmBlK1YNF0NkJtcS-84" value="AFrame" style="text;html=1;align=center;verticalAlign=middle;whiteSpace=wrap;rounded=0;fontSize=14;fontStyle=1" parent="1" vertex="1">
          <mxGeometry x="20" y="490" width="120" height="20" as="geometry" />
        </mxCell>
        <mxCell id="b7XEcmBlK1YNF0NkJtcS-85" value="Easies" style="text;html=1;align=center;verticalAlign=middle;whiteSpace=wrap;rounded=0;fontSize=14;fontStyle=1" parent="1" vertex="1">
          <mxGeometry x="220" y="490" width="120" height="20" as="geometry" />
        </mxCell>
        <mxCell id="b7XEcmBlK1YNF0NkJtcS-86" value="Easy" style="text;html=1;align=center;verticalAlign=middle;whiteSpace=wrap;rounded=0;fontSize=14;fontStyle=1" parent="1" vertex="1">
          <mxGeometry x="430" y="490" width="120" height="20" as="geometry" />
        </mxCell>
        <mxCell id="b7XEcmBlK1YNF0NkJtcS-87" value="EBase" style="text;html=1;align=center;verticalAlign=middle;whiteSpace=wrap;rounded=0;fontSize=14;fontStyle=1" parent="1" vertex="1">
          <mxGeometry x="780" y="490" width="120" height="20" as="geometry" />
        </mxCell>
        <mxCell id="b7XEcmBlK1YNF0NkJtcS-91" value="&lt;div style=&quot;text-align: center;&quot;&gt;&lt;span style=&quot;background-color: initial; text-align: left; font-size: 13px;&quot;&gt;&lt;font face=&quot;Lucida Console&quot;&gt;&lt;sup&gt;â€ &lt;/sup&gt;&lt;/font&gt;&lt;/span&gt;&lt;span style=&quot;background-color: initial; font-size: 13px;&quot;&gt;&lt;font face=&quot;Lucida Console&quot;&gt;&lt;i&gt;if (!E.empty)&lt;/i&gt;&lt;/font&gt;&lt;/span&gt;&lt;/div&gt;" style="text;whiteSpace=wrap;html=1;" parent="1" vertex="1">
          <mxGeometry x="424" y="362" width="120" height="30" as="geometry" />
        </mxCell>
        <mxCell id="b7XEcmBlK1YNF0NkJtcS-98" style="edgeStyle=orthogonalEdgeStyle;rounded=0;orthogonalLoop=1;jettySize=auto;html=1;exitX=0.5;exitY=1;exitDx=0;exitDy=0;entryX=0.5;entryY=0;entryDx=0;entryDy=0;" parent="1" source="b7XEcmBlK1YNF0NkJtcS-97" target="b7XEcmBlK1YNF0NkJtcS-17" edge="1">
          <mxGeometry relative="1" as="geometry" />
        </mxCell>
        <mxCell id="b7XEcmBlK1YNF0NkJtcS-97" value="#stop(_, false)" style="rounded=1;whiteSpace=wrap;html=1;fontFamily=Lucida Console;fontSize=13;fontStyle=0;strokeWidth=2;fillColor=#Effff7;" parent="1" vertex="1">
          <mxGeometry x="10" y="70" width="140" height="40" as="geometry" />
        </mxCell>
        <mxCell id="b7XEcmBlK1YNF0NkJtcS-100" style="edgeStyle=orthogonalEdgeStyle;rounded=0;orthogonalLoop=1;jettySize=auto;html=1;exitX=0.5;exitY=1;exitDx=0;exitDy=0;entryX=0.5;entryY=0;entryDx=0;entryDy=0;" parent="1" source="b7XEcmBlK1YNF0NkJtcS-99" target="b7XEcmBlK1YNF0NkJtcS-47" edge="1">
          <mxGeometry relative="1" as="geometry" />
        </mxCell>
        <mxCell id="b7XEcmBlK1YNF0NkJtcS-99" value="#stop(sts, true)" style="rounded=1;whiteSpace=wrap;html=1;fontFamily=Lucida Console;fontSize=13;fontStyle=0;strokeWidth=2;fillColor=#Effff7;" parent="1" vertex="1">
          <mxGeometry x="10" y="520" width="140" height="40" as="geometry" />
        </mxCell>
        <mxCell id="b7XEcmBlK1YNF0NkJtcS-104" value="&lt;div style=&quot;&quot;&gt;&lt;span style=&quot;background-color: initial; font-size: 13px;&quot;&gt;&lt;font face=&quot;Lucida Console&quot;&gt;* .&lt;i&gt;oneShot is an alias for E.empty&lt;/i&gt;&lt;/font&gt;&lt;/span&gt;&lt;/div&gt;" style="text;whiteSpace=wrap;html=1;" parent="1" vertex="1">
          <mxGeometry x="13" y="362" width="137" height="50" as="geometry" />
        </mxCell>
        <mxCell id="b7XEcmBlK1YNF0NkJtcS-106" value="&lt;div style=&quot;text-align: center;&quot;&gt;&lt;span style=&quot;background-color: initial; text-align: left; font-size: 13px;&quot;&gt;&lt;font face=&quot;Lucida Console&quot;&gt;&lt;sup&gt;â€¡&lt;/sup&gt;&lt;/font&gt;&lt;/span&gt;&lt;span style=&quot;background-color: initial; font-size: 13px;&quot;&gt;&lt;font face=&quot;Lucida Console&quot;&gt;&lt;i&gt;sts never undefined&lt;/i&gt;&lt;/font&gt;&lt;/span&gt;&lt;/div&gt;" style="text;whiteSpace=wrap;html=1;" parent="1" vertex="1">
          <mxGeometry x="608.5" y="525" width="163" height="30" as="geometry" />
        </mxCell>
        <mxCell id="b7XEcmBlK1YNF0NkJtcS-108" value="&lt;span style=&quot;color: rgb(0, 0, 0); font-family: &amp;quot;Lucida Console&amp;quot;; font-size: 16px; font-style: normal; font-variant-ligatures: normal; font-variant-caps: normal; font-weight: 400; letter-spacing: normal; orphans: 2; text-indent: 0px; text-transform: none; widows: 2; word-spacing: 0px; -webkit-text-stroke-width: 0px; white-space: normal; text-decoration-thickness: initial; text-decoration-style: initial; text-decoration-color: initial; float: none; display: inline !important;&quot;&gt;#animate()&lt;/span&gt;" style="text;whiteSpace=wrap;html=1;fontSize=16;align=center;labelBorderColor=none;strokeColor=default;glass=0;shadow=0;rounded=0;strokeWidth=1;fillColor=default;labelBackgroundColor=default;verticalAlign=middle;spacingBottom=0;spacingTop=1;" parent="1" vertex="1">
          <mxGeometry x="10" y="10" width="140" height="30" as="geometry" />
        </mxCell>
        <mxCell id="b7XEcmBlK1YNF0NkJtcS-109" value="&lt;span style=&quot;color: rgb(0, 0, 0); font-family: &amp;quot;Lucida Console&amp;quot;; font-size: 16px; font-style: normal; font-variant-ligatures: normal; font-variant-caps: normal; font-weight: 400; letter-spacing: normal; orphans: 2; text-indent: 0px; text-transform: none; widows: 2; word-spacing: 0px; -webkit-text-stroke-width: 0px; white-space: normal; text-decoration-thickness: initial; text-decoration-style: initial; text-decoration-color: initial; float: none; display: inline !important;&quot;&gt;&amp;nbsp;arrive() stop() return() pause() cancel()&lt;/span&gt;" style="text;whiteSpace=wrap;html=1;fontSize=16;align=left;strokeColor=default;fillColor=default;labelBackgroundColor=default;verticalAlign=middle;spacingBottom=0;spacingTop=1;" parent="1" vertex="1">
          <mxGeometry x="10" y="450" width="415" height="30" as="geometry" />
        </mxCell>
        <mxCell id="b7XEcmBlK1YNF0NkJtcS-126" value="undefined" style="rhombus;whiteSpace=wrap;html=1;fontSize=13;fontFamily=Lucida Console;strokeWidth=1;fillColor=#f9f9f9;" parent="1" vertex="1">
          <mxGeometry x="570" y="240" width="140" height="40" as="geometry" />
        </mxCell>
        <mxCell id="dWusE8W-rmLL4rM88wnJ-3" style="edgeStyle=orthogonalEdgeStyle;rounded=0;orthogonalLoop=1;jettySize=auto;html=1;exitX=0.5;exitY=1;exitDx=0;exitDy=0;" edge="1" parent="1" source="b7XEcmBlK1YNF0NkJtcS-131">
          <mxGeometry relative="1" as="geometry">
            <mxPoint x="480" y="320" as="targetPoint" />
          </mxGeometry>
        </mxCell>
        <mxCell id="b7XEcmBlK1YNF0NkJtcS-131" value="E.empty" style="rhombus;whiteSpace=wrap;html=1;fontSize=13;fontFamily=Lucida Console;strokeWidth=1;fillColor=#FFEFF7;" parent="1" vertex="1">
          <mxGeometry x="410" y="240" width="140" height="40" as="geometry" />
        </mxCell>
        <mxCell id="dWusE8W-rmLL4rM88wnJ-4" style="edgeStyle=orthogonalEdgeStyle;rounded=0;orthogonalLoop=1;jettySize=auto;html=1;exitX=0.5;exitY=1;exitDx=0;exitDy=0;entryX=0.5;entryY=0;entryDx=0;entryDy=0;" edge="1" parent="1" source="b7XEcmBlK1YNF0NkJtcS-132" target="b7XEcmBlK1YNF0NkJtcS-69">
          <mxGeometry relative="1" as="geometry" />
        </mxCell>
        <mxCell id="b7XEcmBlK1YNF0NkJtcS-132" value="else" style="rhombus;whiteSpace=wrap;html=1;fontSize=13;fontFamily=Lucida Console;strokeWidth=1;fillColor=#f7efff;" parent="1" vertex="1">
          <mxGeometry x="730" y="238" width="140" height="40" as="geometry" />
        </mxCell>
        <mxCell id="b7XEcmBlK1YNF0NkJtcS-141" style="edgeStyle=orthogonalEdgeStyle;rounded=0;orthogonalLoop=1;jettySize=auto;html=1;exitX=0.5;exitY=1;exitDx=0;exitDy=0;entryX=0.5;entryY=0;entryDx=0;entryDy=0;" parent="1" source="b7XEcmBlK1YNF0NkJtcS-139" target="b7XEcmBlK1YNF0NkJtcS-40" edge="1">
          <mxGeometry relative="1" as="geometry" />
        </mxCell>
        <mxCell id="b7XEcmBlK1YNF0NkJtcS-139" value="E.empty*" style="rhombus;whiteSpace=wrap;html=1;fontSize=13;fontFamily=Lucida Console;strokeWidth=1;fillColor=#ffeff7;" parent="1" vertex="1">
          <mxGeometry x="10" y="240" width="140" height="40" as="geometry" />
        </mxCell>
        <mxCell id="b7XEcmBlK1YNF0NkJtcS-144" style="edgeStyle=orthogonalEdgeStyle;rounded=0;orthogonalLoop=1;jettySize=auto;html=1;exitX=0.5;exitY=1;exitDx=0;exitDy=0;entryX=0.5;entryY=0;entryDx=0;entryDy=0;" parent="1" source="b7XEcmBlK1YNF0NkJtcS-143" target="b7XEcmBlK1YNF0NkJtcS-62" edge="1">
          <mxGeometry relative="1" as="geometry" />
        </mxCell>
        <mxCell id="b7XEcmBlK1YNF0NkJtcS-143" value="E.empty" style="rhombus;whiteSpace=wrap;html=1;fontSize=13;fontFamily=Lucida Console;strokeWidth=1;fillColor=#FFEFF7;" parent="1" vertex="1">
          <mxGeometry x="620" y="682" width="140" height="40" as="geometry" />
        </mxCell>
        <mxCell id="b7XEcmBlK1YNF0NkJtcS-148" style="edgeStyle=orthogonalEdgeStyle;rounded=0;orthogonalLoop=1;jettySize=auto;html=1;exitX=1;exitY=0.5;exitDx=0;exitDy=0;entryX=0;entryY=0.5;entryDx=0;entryDy=0;" parent="1" source="b7XEcmBlK1YNF0NkJtcS-146" target="b7XEcmBlK1YNF0NkJtcS-77" edge="1">
          <mxGeometry relative="1" as="geometry" />
        </mxCell>
        <mxCell id="b7XEcmBlK1YNF0NkJtcS-146" value="else&lt;sup&gt;â€¡&lt;/sup&gt;" style="rhombus;whiteSpace=wrap;html=1;fontSize=13;fontFamily=Lucida Console;strokeWidth=1;fillColor=#f7efff;" parent="1" vertex="1">
          <mxGeometry x="620" y="600" width="140" height="40" as="geometry" />
        </mxCell>
        <mxCell id="b7XEcmBlK1YNF0NkJtcS-151" style="edgeStyle=orthogonalEdgeStyle;rounded=0;orthogonalLoop=1;jettySize=auto;html=1;exitX=0.5;exitY=1;exitDx=0;exitDy=0;entryX=0.5;entryY=0;entryDx=0;entryDy=0;" parent="1" source="b7XEcmBlK1YNF0NkJtcS-149" target="b7XEcmBlK1YNF0NkJtcS-65" edge="1">
          <mxGeometry relative="1" as="geometry" />
        </mxCell>
        <mxCell id="b7XEcmBlK1YNF0NkJtcS-149" value="E.empty" style="rhombus;whiteSpace=wrap;html=1;fontSize=13;fontFamily=Lucida Console;strokeWidth=1;fillColor=#FFEFF7;" parent="1" vertex="1">
          <mxGeometry x="10" y="682" width="140" height="40" as="geometry" />
        </mxCell>
        <mxCell id="b7XEcmBlK1YNF0NkJtcS-154" style="edgeStyle=orthogonalEdgeStyle;rounded=0;orthogonalLoop=1;jettySize=auto;html=1;exitX=0.5;exitY=1;exitDx=0;exitDy=0;entryX=0.5;entryY=0;entryDx=0;entryDy=0;" parent="1" source="b7XEcmBlK1YNF0NkJtcS-152" target="b7XEcmBlK1YNF0NkJtcS-59" edge="1">
          <mxGeometry relative="1" as="geometry" />
        </mxCell>
        <mxCell id="b7XEcmBlK1YNF0NkJtcS-152" value="E.empty" style="rhombus;whiteSpace=wrap;html=1;fontSize=13;fontFamily=Lucida Console;strokeWidth=1;fillColor=#FFEFF7;" parent="1" vertex="1">
          <mxGeometry x="210" y="682" width="140" height="40" as="geometry" />
        </mxCell>
        <mxCell id="b7XEcmBlK1YNF0NkJtcS-155" value="" style="endArrow=none;html=1;rounded=0;fontColor=#333333;strokeColor=#555555;strokeWidth=2;curved=0;endSize=0;startSize=0;startArrow=none;startFill=0;" parent="1" edge="1">
          <mxGeometry width="50" height="50" relative="1" as="geometry">
            <mxPoint x="5" y="425" as="sourcePoint" />
            <mxPoint x="895" y="420" as="targetPoint" />
          </mxGeometry>
        </mxCell>
        <mxCell id="dWusE8W-rmLL4rM88wnJ-8" style="edgeStyle=orthogonalEdgeStyle;rounded=0;orthogonalLoop=1;jettySize=auto;html=1;exitX=0.5;exitY=1;exitDx=0;exitDy=0;entryX=0.5;entryY=0;entryDx=0;entryDy=0;entryPerimeter=0;" edge="1" parent="1" source="b7XEcmBlK1YNF0NkJtcS-26" target="b7XEcmBlK1YNF0NkJtcS-132">
          <mxGeometry relative="1" as="geometry">
            <Array as="points">
              <mxPoint x="640" y="215" />
              <mxPoint x="800" y="215" />
            </Array>
          </mxGeometry>
        </mxCell>
      </root>
    </mxGraphModel>
  </diagram>
</mxfile>
